<svg viewBox="0 0 605 81" fill="none" xmlns="http://www.w3.org/2000/svg">
<path d="M39.4581 37.422H30.4941L32.0061 30.348H40.9701L39.4581 37.422ZM35.8941 54H44.5341L46.3161 45.738H54.5781V37.422H48.0981L49.6101 30.348H58.0341V22.032H51.3381L53.0661 14.04H44.4261L42.6981 22.032H33.7341L35.4621 14.04H26.8221L25.0941 22.032H15.5361V30.348H23.3661L21.8541 37.422H12.0801V45.738H20.0721L18.2901 54H26.9301L28.7121 45.738H37.6761L35.8941 54Z" fill="white"/>
<path fill-rule="evenodd" clip-rule="evenodd" d="M37.6761 45.738H28.7121L26.9301 54H18.2901L20.0721 45.738H12.0801V37.422H21.8541L23.3661 30.348H15.5361V22.032H25.0941L26.8221 14.04H35.4621L33.7341 22.032H42.6981L44.4261 14.04H53.0661L51.3381 22.032H58.0341V30.348H49.6101L48.0981 37.422H54.5781V45.738H46.3161L44.5341 54H35.8941L37.6761 45.738ZM31.4136 65.1322C30.0209 65.6937 28.5052 66 26.9301 66H18.2901C14.6634 66 11.2312 64.3598 8.95304 61.5379C7.72696 60.0192 6.90595 58.2459 6.52831 56.3793C2.69577 54.3757 0.0800781 50.3623 0.0800781 45.738V37.422C0.0800781 34.1383 1.39904 31.1626 3.53608 28.9959V22.032C3.53608 15.4132 8.89483 10.0459 15.5105 10.0321C17.1859 5.29433 21.688 2.04004 26.8221 2.04004H35.4621C37.0165 2.04004 38.5352 2.34134 39.9425 2.90784C41.3353 2.34635 42.851 2.04004 44.4261 2.04004H53.0661C56.6939 2.04004 60.1269 3.68121 62.405 6.50452C63.749 8.17018 64.6059 10.1418 64.9252 12.2067C68.0149 14.3777 70.0341 17.9691 70.0341 22.032V30.348C70.0341 33.6318 68.7151 36.6075 66.5781 38.7742V45.738C66.5781 51.897 61.9381 56.9723 55.9631 57.659C54.3894 62.585 49.7935 66 44.5341 66H35.8941C34.3397 66 32.821 65.6987 31.4136 65.1322ZM39.4581 37.422L40.9701 30.348H32.0061L30.4941 37.422H39.4581Z" fill="#606060"/>
<path d="M92.1379 54H101.318V36.396C101.318 28.296 96.6739 23.544 89.7079 23.544C85.6579 23.544 82.4179 25.326 80.5819 27.864V23.868H71.3479V54H80.5819V37.638C80.5819 33.534 82.8499 31.266 86.3599 31.266C89.8699 31.266 92.1379 33.534 92.1379 37.638V54Z" fill="white"/>
<path d="M111.299 38.88C111.299 48.384 117.185 54.432 124.529 54.432C129.011 54.432 132.197 52.38 133.871 49.734V54H143.105V23.868H133.871V28.134C132.251 25.488 129.065 23.436 124.583 23.436C117.185 23.436 111.299 29.376 111.299 38.88ZM133.871 38.934C133.871 43.74 130.793 46.386 127.283 46.386C123.827 46.386 120.695 43.686 120.695 38.88C120.695 34.074 123.827 31.482 127.283 31.482C130.793 31.482 133.871 34.128 133.871 38.934Z" fill="white"/>
<path d="M164.419 28.134V23.868H155.185V68.364H164.419V49.788C166.093 52.326 169.279 54.432 173.707 54.432C181.105 54.432 186.991 48.384 186.991 38.88C186.991 29.376 181.105 23.436 173.707 23.436C169.279 23.436 166.093 25.488 164.419 28.134ZM177.595 38.88C177.595 43.686 174.463 46.386 170.953 46.386C167.497 46.386 164.365 43.74 164.365 38.934C164.365 34.128 167.497 31.482 170.953 31.482C174.463 31.482 177.595 34.074 177.595 38.88Z" fill="white"/>
<path d="M226.719 38.934C226.719 29.376 219.915 23.436 211.059 23.436C202.257 23.436 195.399 29.376 195.399 38.934C195.399 48.492 202.095 54.432 210.951 54.432C219.807 54.432 226.719 48.492 226.719 38.934ZM204.795 38.934C204.795 33.804 207.711 31.428 211.059 31.428C214.299 31.428 217.323 33.804 217.323 38.934C217.323 44.01 214.245 46.44 210.951 46.44C207.603 46.44 204.795 44.01 204.795 38.934Z" fill="white"/>
<path d="M235.182 38.934C235.182 48.492 241.446 54.432 250.302 54.432C257.862 54.432 263.208 50.058 264.774 43.092H254.946C254.136 45.306 252.678 46.548 250.14 46.548C246.846 46.548 244.578 43.956 244.578 38.934C244.578 33.912 246.846 31.32 250.14 31.32C252.678 31.32 254.19 32.67 254.946 34.776H264.774C263.208 27.594 257.862 23.436 250.302 23.436C241.446 23.436 235.182 29.43 235.182 38.934Z" fill="white"/>
<path d="M275.114 54H284.348V37.638C284.348 33.534 286.616 31.266 290.126 31.266C293.636 31.266 295.904 33.534 295.904 37.638V54H305.084V36.396C305.084 28.296 300.494 23.544 293.636 23.544C289.478 23.544 286.184 25.326 284.348 27.918V14.04H275.114V54Z" fill="white"/>
<path d="M315.064 38.88C315.064 48.384 320.95 54.432 328.294 54.432C332.776 54.432 335.962 52.38 337.636 49.734V54H346.87V23.868H337.636V28.134C336.016 25.488 332.83 23.436 328.348 23.436C320.95 23.436 315.064 29.376 315.064 38.88ZM337.636 38.934C337.636 43.74 334.558 46.386 331.048 46.386C327.592 46.386 324.46 43.686 324.46 38.88C324.46 34.074 327.592 31.482 331.048 31.482C334.558 31.482 337.636 34.128 337.636 38.934Z" fill="white"/>
<path d="M357.115 38.88C357.115 48.384 363.001 54.432 370.345 54.432C374.827 54.432 378.013 52.38 379.687 49.734V54H388.921V23.868H379.687V28.134C378.067 25.488 374.881 23.436 370.399 23.436C363.001 23.436 357.115 29.376 357.115 38.88ZM379.687 38.934C379.687 43.74 376.609 46.386 373.099 46.386C369.643 46.386 366.511 43.686 366.511 38.88C366.511 34.074 369.643 31.482 373.099 31.482C376.609 31.482 379.687 34.128 379.687 38.934Z" fill="white"/>
<path d="M421.791 54H430.971V36.396C430.971 28.296 426.327 23.544 419.361 23.544C415.311 23.544 412.071 25.326 410.235 27.864V23.868H401.001V54H410.235V37.638C410.235 33.534 412.503 31.266 416.013 31.266C419.523 31.266 421.791 33.534 421.791 37.638V54Z" fill="white"/>
<path d="M452.562 49.464C452.562 46.602 450.348 44.388 447.108 44.388C443.814 44.388 441.6 46.602 441.6 49.464C441.6 52.218 443.814 54.432 447.108 54.432C450.348 54.432 452.562 52.218 452.562 49.464Z" fill="white"/>
<path d="M461.592 38.934C461.592 48.492 467.856 54.432 476.712 54.432C484.272 54.432 489.618 50.058 491.184 43.092H481.356C480.546 45.306 479.088 46.548 476.55 46.548C473.256 46.548 470.988 43.956 470.988 38.934C470.988 33.912 473.256 31.32 476.55 31.32C479.088 31.32 480.6 32.67 481.356 34.776H491.184C489.618 27.594 484.272 23.436 476.712 23.436C467.856 23.436 461.592 29.43 461.592 38.934Z" fill="white"/>
<path d="M531.007 38.934C531.007 29.376 524.203 23.436 515.347 23.436C506.545 23.436 499.687 29.376 499.687 38.934C499.687 48.492 506.383 54.432 515.239 54.432C524.095 54.432 531.007 48.492 531.007 38.934ZM509.083 38.934C509.083 33.804 511.999 31.428 515.347 31.428C518.587 31.428 521.611 33.804 521.611 38.934C521.611 44.01 518.533 46.44 515.239 46.44C511.891 46.44 509.083 44.01 509.083 38.934Z" fill="white"/>
<path d="M582.832 54H592.012V36.396C592.012 28.296 587.206 23.544 579.754 23.544C575.38 23.544 571.6 25.974 569.602 29.16C567.55 25.542 563.878 23.544 559.342 23.544C555.4 23.544 552.322 25.218 550.54 27.648V23.868H541.306V54H550.54V37.638C550.54 33.696 552.808 31.536 556.318 31.536C559.828 31.536 562.096 33.696 562.096 37.638V54H571.276V37.638C571.276 33.696 573.544 31.536 577.054 31.536C580.564 31.536 582.832 33.696 582.832 37.638V54Z" fill="white"/>
<path fill-rule="evenodd" clip-rule="evenodd" d="M92.1379 66C90.0432 66 88.0739 65.4633 86.3599 64.5199C84.6459 65.4633 82.6766 66 80.5819 66H71.3479C64.7205 66 59.3479 60.6275 59.3479 54V23.868C59.3479 17.2406 64.7205 11.868 71.3479 11.868H80.5819C81.6591 11.868 82.7031 12.01 83.6963 12.2761C85.6233 11.7947 87.6407 11.544 89.7079 11.544C96.0271 11.544 102.313 13.7784 106.942 18.7921C106.945 18.7955 106.948 18.799 106.951 18.8024C111.324 14.2557 117.374 11.436 124.583 11.436C126.786 11.436 128.908 11.7121 130.91 12.236C131.857 11.9957 132.849 11.868 133.871 11.868H143.105C145.307 11.868 147.371 12.4613 149.145 13.4968C150.919 12.4613 152.983 11.868 155.185 11.868H164.419C165.445 11.868 166.442 11.9969 167.393 12.2393C169.384 11.715 171.5 11.436 173.707 11.436C181.028 11.436 187.154 14.3445 191.542 19.017C191.579 18.9811 191.617 18.9453 191.654 18.9096C196.958 13.8605 203.953 11.436 211.059 11.436C218.179 11.436 225.185 13.8522 230.495 18.9196C230.607 19.0268 230.719 19.1349 230.829 19.2438C230.857 19.2148 230.886 19.186 230.915 19.1572C236.126 13.9193 243.111 11.436 250.302 11.436C254.734 11.436 259.135 12.3491 263.114 14.3727V14.04C263.114 7.41262 268.486 2.04004 275.114 2.04004H284.348C290.161 2.04004 295.009 6.17373 296.112 11.6621C301.54 12.1842 306.762 14.4536 310.738 18.7808C315.109 14.2467 321.151 11.436 328.348 11.436C330.552 11.436 332.674 11.7121 334.676 12.236C335.623 11.9957 336.615 11.868 337.636 11.868H346.87C350.498 11.868 353.749 13.4776 355.95 16.0214C359.906 13.1348 364.804 11.436 370.399 11.436C372.602 11.436 374.724 11.7121 376.726 12.236C377.673 11.9957 378.665 11.868 379.687 11.868H388.921C391.123 11.868 393.187 12.4613 394.961 13.4968C396.735 12.4613 398.799 11.868 401.001 11.868H410.235C411.312 11.868 412.356 12.01 413.349 12.2761C415.276 11.7947 417.294 11.544 419.361 11.544C425.68 11.544 431.966 13.7784 436.595 18.7921C440.297 22.8021 442.201 27.7823 442.778 32.9041C444.176 32.5652 445.629 32.388 447.108 32.388C448.161 32.388 449.201 32.4784 450.215 32.6533C451.254 27.5754 453.599 22.9013 457.324 19.1572C462.536 13.9193 469.521 11.436 476.712 11.436C482.719 11.436 488.669 13.1135 493.588 16.96C494.398 17.5936 495.158 18.2686 495.868 18.9807C495.893 18.957 495.917 18.9333 495.942 18.9096C501.246 13.8605 508.241 11.436 515.347 11.436C521.217 11.436 527.01 13.0783 531.838 16.4945C534.034 13.6788 537.459 11.868 541.306 11.868H550.54C551.562 11.868 552.555 11.9958 553.502 12.2363C555.376 11.7799 557.335 11.544 559.342 11.544C562.968 11.544 566.517 12.2797 569.734 13.7528C572.75 12.3556 576.138 11.544 579.754 11.544C586.079 11.544 592.486 13.6205 597.294 18.5804C602.068 23.5052 604.012 29.9769 604.012 36.396V54C604.012 60.6275 598.639 66 592.012 66H582.832C580.737 66 578.768 65.4633 577.054 64.5199C575.34 65.4633 573.371 66 571.276 66H562.096C560.001 66 558.032 65.4633 556.318 64.5199C554.604 65.4633 552.635 66 550.54 66H541.306C537.444 66 534.009 64.176 531.814 61.3425C526.96 64.7764 521.134 66.432 515.239 66.432C508.112 66.432 501.109 64.0092 495.816 58.9084C495.805 58.8985 495.795 58.8885 495.785 58.8786C495.117 59.5451 494.406 60.1791 493.651 60.7771C488.801 64.623 482.859 66.432 476.712 66.432C470.695 66.432 464.798 64.7017 459.967 61.0396C456.69 64.4474 452.011 66.432 447.108 66.432C443.785 66.432 440.552 65.5255 437.787 63.8776C435.851 65.2161 433.503 66 430.971 66H421.791C419.696 66 417.727 65.4633 416.013 64.5199C414.299 65.4633 412.33 66 410.235 66H401.001C398.799 66 396.735 65.4068 394.961 64.3713C393.187 65.4068 391.123 66 388.921 66H379.687C378.656 66 377.656 65.8701 376.701 65.6258C374.697 66.1524 372.567 66.432 370.345 66.432C364.759 66.432 359.89 64.7223 355.959 61.8358C353.759 64.3859 350.503 66 346.87 66H337.636C336.606 66 335.605 65.8701 334.651 65.6258C332.647 66.1524 330.517 66.432 328.294 66.432C322.785 66.432 317.973 64.7685 314.07 61.953C311.871 64.4353 308.66 66 305.084 66H295.904C293.809 66 291.839 65.4633 290.126 64.5199C288.412 65.4633 286.442 66 284.348 66H275.114C271.436 66 268.145 64.3456 265.943 61.7404C261.349 64.9258 255.911 66.432 250.302 66.432C243.142 66.432 236.152 63.9818 230.925 58.7419C230.881 58.6975 230.837 58.6529 230.793 58.6083C230.663 58.736 230.532 58.8626 230.4 58.988C225.073 64.0224 218.063 66.432 210.951 66.432C203.824 66.432 196.821 64.0092 191.528 58.9084C191.513 58.894 191.498 58.8795 191.483 58.865C187.665 62.9287 182.534 65.6679 176.419 66.2949V68.364C176.419 74.9915 171.046 80.364 164.419 80.364H155.185C148.558 80.364 143.185 74.9915 143.185 68.364V65.9998C143.158 66 143.131 66 143.105 66H133.871C132.84 66 131.84 65.8701 130.885 65.6258C128.881 66.1524 126.751 66.432 124.529 66.432C119.019 66.432 114.207 64.7685 110.304 61.953C108.106 64.4353 104.895 66 101.318 66H92.1379ZM71.3479 23.868V54H80.5819V37.638C80.5819 34.8776 81.608 32.9478 83.3479 31.9801C83.9434 31.6489 84.6226 31.4304 85.3729 31.3299C85.6896 31.2874 86.0189 31.266 86.3599 31.266C87.6653 31.266 88.7989 31.5797 89.7079 32.1849C90.9842 33.0345 91.8178 34.4588 92.0628 36.396C92.1124 36.7891 92.1379 37.2033 92.1379 37.638V54H101.318V36.396C101.318 34.2371 100.988 32.3161 100.372 30.6595C99.0121 27.0009 96.2575 24.6319 92.5819 23.8389C91.6773 23.6438 90.717 23.544 89.7079 23.544C88.6858 23.544 87.7153 23.6575 86.8059 23.868C86.6556 23.9028 86.5069 23.9403 86.3599 23.9803C85.2524 24.282 84.2422 24.7301 83.3479 25.2925C82.2345 25.9928 81.3006 26.8705 80.5819 27.864V23.868H71.3479ZM143.105 54V23.868H133.871V28.134C133.206 27.0485 132.278 26.0629 131.105 25.278C130.202 24.6738 129.153 24.1885 127.969 23.868C127.745 23.8075 127.516 23.7528 127.283 23.7043C126.444 23.5303 125.543 23.436 124.583 23.436C123.652 23.436 122.746 23.53 121.872 23.7132C117.954 24.5344 114.693 27.1484 112.87 31.1296C112.158 32.6849 111.665 34.4488 111.439 36.396C111.347 37.1939 111.299 38.0224 111.299 38.88C111.299 42.247 112.037 45.1802 113.318 47.5644C115.204 51.0754 118.265 53.3959 121.872 54.1578C122.729 54.339 123.618 54.432 124.529 54.432C125.509 54.432 126.428 54.3338 127.283 54.1525C127.498 54.1069 127.709 54.056 127.916 54C129.121 53.6745 130.186 53.1789 131.105 52.5614C132.265 51.7812 133.192 50.8064 133.871 49.734V54H143.105ZM131.105 45.1569C132.519 44.111 133.538 42.4149 133.803 40.1349C133.847 39.751 133.871 39.3507 133.871 38.934C133.871 38.5174 133.847 38.1171 133.803 37.7332C133.538 35.4532 132.519 33.757 131.105 32.7112C130.275 32.0977 129.31 31.7079 128.283 31.5553C127.955 31.5066 127.621 31.482 127.283 31.482C126.339 31.482 125.42 31.6751 124.583 32.0535C122.35 33.0617 120.695 35.3856 120.695 38.88C120.695 42.3462 122.324 44.717 124.529 45.7694C125.381 46.1762 126.319 46.386 127.283 46.386C127.67 46.386 128.053 46.3537 128.427 46.2898C129.4 46.1232 130.314 45.7417 131.105 45.1569ZM128.64 38.934C128.603 38.9162 128.566 38.8982 128.53 38.88C128.101 38.6671 127.684 38.4283 127.283 38.1646C126.18 37.4411 125.189 36.5304 124.36 35.4528C124.289 35.4652 124.255 35.4805 124.247 35.4841C124.232 35.4904 124.185 35.5116 124.102 35.6041C123.972 35.7491 123.299 36.6142 123.299 38.88C123.299 38.8981 123.299 38.9161 123.299 38.934C123.309 41.1659 123.978 42.0774 124.146 42.2672C124.246 42.3803 124.301 42.4015 124.302 42.4018C124.308 42.4048 124.323 42.4107 124.351 42.4168C124.353 42.4172 124.356 42.4177 124.358 42.4182C125.188 41.3388 126.18 40.4273 127.283 39.7034C127.719 39.4172 128.172 39.1603 128.64 38.934C128.64 38.934 128.64 38.934 128.64 38.934ZM155.185 68.364H164.419V49.788C165.098 50.8177 166.026 51.7763 167.185 52.552C168.251 53.2652 169.511 53.8238 170.953 54.1408C171.808 54.3289 172.727 54.432 173.707 54.432C174.638 54.432 175.545 54.3363 176.419 54.15C179.9 53.408 182.864 51.2296 184.76 47.9408C186.164 45.5039 186.983 42.4575 186.991 38.934C186.991 38.9161 186.991 38.8981 186.991 38.88C186.991 35.3556 186.182 32.3213 184.786 29.8983C182.891 26.6092 179.916 24.4465 176.418 23.7132C175.544 23.53 174.638 23.436 173.707 23.436C172.727 23.436 171.808 23.5365 170.953 23.7216C170.749 23.7657 170.549 23.8146 170.353 23.868C169.159 24.1931 168.1 24.6879 167.185 25.3042C166.026 26.0848 165.098 27.0606 164.419 28.134V23.868H155.185V68.364ZM164.434 40.135C164.705 42.4314 165.752 44.1354 167.185 45.1794C167.948 45.7356 168.821 46.1045 169.744 46.2757C170.14 46.349 170.544 46.386 170.953 46.386C171.919 46.386 172.856 46.1816 173.707 45.7852C175.949 44.7409 177.595 42.3637 177.595 38.88C177.595 35.3964 175.949 33.076 173.707 32.0628C172.856 31.6783 171.919 31.482 170.953 31.482C170.582 31.482 170.215 31.5125 169.855 31.5729C168.891 31.7345 167.979 32.1103 167.185 32.6887C165.741 33.7408 164.688 35.4634 164.428 37.7871C164.386 38.1545 164.365 38.5369 164.365 38.934C164.365 39.3507 164.389 39.7511 164.434 40.135ZM169.594 38.961C170.062 39.1845 170.516 39.4386 170.953 39.7222C172.058 40.4392 173.055 41.3444 173.89 42.4188C173.953 42.4082 173.981 42.3949 173.985 42.393C173.995 42.3884 174.052 42.3632 174.148 42.2546C174.312 42.0697 174.98 41.1656 174.991 38.934C174.991 38.9161 174.991 38.8981 174.991 38.88C174.991 36.6142 174.318 35.7491 174.188 35.6041C174.105 35.5116 174.058 35.4907 174.044 35.4844C174.035 35.4808 174 35.4652 173.929 35.4528C173.087 36.5485 172.077 37.4711 170.953 38.1999C170.568 38.4496 170.17 38.6766 169.76 38.88C169.723 38.8982 169.687 38.9162 169.65 38.934C169.631 38.9431 169.613 38.9521 169.594 38.961ZM197.754 47.6836C200.457 51.9769 205.258 54.432 210.951 54.432C216.7 54.432 221.629 51.9293 224.381 47.5588C225.868 45.1963 226.719 42.2879 226.719 38.934C226.719 35.5675 225.875 32.6498 224.395 30.2825C221.672 25.9286 216.796 23.436 211.059 23.436C205.394 23.436 200.534 25.897 197.789 30.1998C196.278 32.5692 195.409 35.497 195.399 38.88C195.399 38.898 195.399 38.916 195.399 38.934C195.399 42.3472 196.253 45.2989 197.754 47.6836ZM275.114 54H284.348V37.638C284.348 34.8776 285.374 32.9478 287.114 31.9801C287.715 31.6457 288.401 31.4262 289.16 31.327C289.47 31.2865 289.792 31.266 290.126 31.266C291.51 31.266 292.701 31.6187 293.636 32.2975C294.82 33.1578 295.594 34.542 295.828 36.396C295.878 36.7891 295.904 37.2033 295.904 37.638V54H305.084V36.396C305.084 34.2293 304.755 32.3021 304.143 30.6414C302.783 26.9533 300.022 24.5793 296.348 23.8136C295.491 23.6351 294.585 23.544 293.636 23.544C292.382 23.544 291.206 23.7061 290.126 24.0036C289.016 24.3093 288.006 24.7578 287.114 25.3203C285.995 26.0259 285.061 26.9108 284.348 27.918V14.04H275.114V54ZM237.416 47.6907C239.967 51.9388 244.524 54.3852 250.14 54.4314C250.194 54.4318 250.248 54.432 250.302 54.432C251.963 54.432 253.516 54.2211 254.946 53.818C258.531 52.8078 261.34 50.5908 263.114 47.4643C263.241 47.2396 263.363 47.0101 263.48 46.776C263.558 46.6186 263.634 46.4591 263.708 46.2975C264.16 45.3037 264.518 44.2326 264.774 43.092H254.946C254.327 44.7853 253.328 45.91 251.758 46.3454C251.319 46.4671 250.835 46.5349 250.302 46.5463C250.249 46.5475 250.195 46.548 250.14 46.548C247.353 46.548 245.301 44.6929 244.735 41.0807C244.709 40.9159 244.686 40.7475 244.667 40.5755C244.621 40.1706 244.592 39.7455 244.582 39.3004C244.58 39.1797 244.578 39.0576 244.578 38.934C244.578 38.7858 244.58 38.6397 244.584 38.4958C244.595 38.0845 244.622 37.6906 244.665 37.3141C244.685 37.1346 244.708 36.9591 244.735 36.7875C245.301 33.1752 247.353 31.32 250.14 31.32C250.195 31.32 250.249 31.3207 250.302 31.3219C250.824 31.334 251.302 31.4046 251.737 31.5284C253.336 31.9834 254.365 33.1561 254.946 34.776H264.774C264.528 33.645 264.187 32.589 263.759 31.6124C263.682 31.4363 263.602 31.2629 263.519 31.092C263.391 30.8268 263.255 30.5679 263.114 30.3154C261.34 27.1605 258.531 25.0009 254.946 24.0257C253.516 23.6366 251.963 23.436 250.302 23.436C250.248 23.436 250.194 23.4363 250.14 23.4367C244.533 23.4832 239.981 25.9438 237.428 30.1813C235.987 32.5716 235.182 35.5274 235.182 38.934C235.182 42.3506 235.983 45.3048 237.416 47.6907ZM346.87 54V23.868H337.636V28.134C336.972 27.0485 336.043 26.0629 334.87 25.278C333.967 24.6738 332.919 24.1885 331.734 23.868C331.51 23.8075 331.282 23.7528 331.048 23.7043C330.21 23.5303 329.309 23.436 328.348 23.436C327.418 23.436 326.511 23.53 325.637 23.7132C321.722 24.534 318.461 27.1462 316.638 31.1244C315.924 32.681 315.431 34.4467 315.205 36.396C315.112 37.1939 315.064 38.0224 315.064 38.88C315.064 42.247 315.803 45.1802 317.084 47.5644C318.969 51.0755 322.03 53.3959 325.637 54.1578C326.495 54.339 327.383 54.432 328.294 54.432C329.275 54.432 330.194 54.3338 331.048 54.1525C331.263 54.1069 331.474 54.056 331.681 54C332.886 53.6745 333.952 53.1789 334.87 52.5614C336.031 51.7812 336.958 50.8064 337.636 49.734V54H346.87ZM337.569 40.1349C337.613 39.751 337.636 39.3507 337.636 38.934C337.636 38.5174 337.613 38.1171 337.569 37.7332C337.304 35.4532 336.284 33.757 334.87 32.7111C334.041 32.0976 333.076 31.7079 332.048 31.5553C331.72 31.5066 331.386 31.482 331.048 31.482C330.105 31.482 329.186 31.6751 328.348 32.0535C326.116 33.0617 324.46 35.3856 324.46 38.88C324.46 42.3462 326.089 44.717 328.294 45.7694C329.147 46.1762 330.085 46.386 331.048 46.386C331.436 46.386 331.819 46.3537 332.192 46.2898C333.166 46.1232 334.08 45.7417 334.87 45.1569C336.284 44.1111 337.304 42.4149 337.569 40.1349ZM332.405 38.934C332.369 38.9162 332.332 38.8982 332.295 38.88C331.866 38.6671 331.45 38.4283 331.048 38.1646C329.946 37.4411 328.954 36.5304 328.126 35.4528C328.055 35.4652 328.02 35.4805 328.012 35.4841C327.998 35.4904 327.95 35.5116 327.867 35.6041C327.737 35.7491 327.064 36.6142 327.064 38.88C327.064 38.8981 327.064 38.9161 327.064 38.934C327.075 41.1659 327.743 42.0774 327.911 42.2672C328.012 42.3803 328.067 42.4015 328.067 42.4018C328.074 42.4048 328.088 42.4107 328.117 42.4168C328.119 42.4172 328.121 42.4177 328.124 42.4182C328.953 41.3388 329.945 40.4273 331.048 39.7034C331.484 39.4172 331.938 39.1603 332.405 38.934ZM388.921 54V23.868H379.687V28.134C379.022 27.0485 378.094 26.0629 376.921 25.278C376.018 24.6738 374.969 24.1885 373.785 23.868C373.561 23.8075 373.332 23.7528 373.099 23.7043C372.26 23.5303 371.359 23.436 370.399 23.436C369.468 23.436 368.562 23.53 367.688 23.7132C363.899 24.5074 360.724 26.9785 358.87 30.7414C357.752 33.0121 357.115 35.7532 357.115 38.88C357.115 42.0087 357.752 44.7628 358.87 47.05C360.727 50.8488 363.907 53.3593 367.688 54.1578C368.545 54.339 369.434 54.432 370.345 54.432C371.325 54.432 372.244 54.3338 373.099 54.1525C373.314 54.1069 373.525 54.056 373.732 54C374.937 53.6745 376.002 53.1789 376.921 52.5614C378.081 51.7812 379.008 50.8064 379.687 49.734V54H388.921ZM376.921 45.1569C378.335 44.1111 379.354 42.4149 379.619 40.1349C379.664 39.751 379.687 39.3507 379.687 38.934C379.687 38.5174 379.664 38.1171 379.619 37.7332C379.354 35.4532 378.335 33.757 376.921 32.7111C376.091 32.0976 375.126 31.7079 374.099 31.5553C373.771 31.5066 373.437 31.482 373.099 31.482C372.155 31.482 371.236 31.6751 370.399 32.0535C368.166 33.0617 366.511 35.3856 366.511 38.88C366.511 42.3462 368.14 44.717 370.345 45.7694C371.197 46.1762 372.135 46.386 373.099 46.386C373.486 46.386 373.869 46.3537 374.243 46.2898C375.216 46.1232 376.13 45.7417 376.921 45.1569ZM374.456 38.934C374.419 38.9162 374.382 38.8982 374.346 38.88C373.917 38.6671 373.5 38.4283 373.099 38.1646C371.996 37.4411 371.005 36.5304 370.176 35.4528C370.105 35.4652 370.071 35.4805 370.063 35.4841C370.049 35.4901 370.002 35.5104 369.918 35.6041C369.788 35.7491 369.115 36.6142 369.115 38.88C369.115 38.8981 369.115 38.9161 369.115 38.934C369.125 41.1659 369.794 42.0774 369.962 42.2672C370.062 42.3803 370.117 42.4015 370.118 42.4018C370.124 42.4048 370.139 42.4107 370.167 42.4168C370.169 42.4172 370.172 42.4177 370.174 42.4182C371.004 41.3388 371.996 40.4273 373.099 39.7034C373.535 39.4172 373.988 39.1603 374.456 38.934ZM430.971 54V36.396C430.971 29.4694 427.575 24.991 422.235 23.8389C421.33 23.6438 420.37 23.544 419.361 23.544C418.339 23.544 417.368 23.6575 416.459 23.868C416.309 23.9028 416.16 23.9403 416.013 23.9803C414.906 24.282 413.895 24.7301 413.001 25.2926C411.888 25.9928 410.954 26.8705 410.235 27.864V23.868H401.001V54H410.235V37.638C410.235 34.8776 411.261 32.9478 413.001 31.9801C413.597 31.6489 414.276 31.4304 415.026 31.3299C415.343 31.2874 415.672 31.266 416.013 31.266C417.318 31.266 418.452 31.5797 419.361 32.1849C420.637 33.0345 421.471 34.4588 421.716 36.396C421.766 36.7891 421.791 37.2033 421.791 37.638V54H430.971ZM442.951 54.7055C444.384 55.9842 445.986 56.388 447.108 56.388C448.197 56.388 449.867 55.9846 451.356 54.5786C451.977 53.993 452.467 53.323 452.828 52.6134C452.606 52.1913 452.395 51.7634 452.196 51.3301C452.434 50.7546 452.562 50.1249 452.562 49.464C452.562 47.6562 451.678 46.107 450.211 45.211C450.074 44.5372 449.96 43.8564 449.869 43.1697C448.845 42.618 447.849 42.432 447.108 42.432C445.978 42.432 444.391 42.8395 442.971 44.1086V45.9981C442.097 46.8967 441.6 48.1076 441.6 49.464C441.6 50.7693 442.097 51.9533 442.971 52.8377V54C442.971 54.2369 442.964 54.4721 442.951 54.7055ZM500.088 42.8208C500.272 43.6742 500.518 44.4875 500.82 45.2584C501.212 46.2575 501.7 47.1853 502.272 48.0365C505.012 52.1112 509.704 54.432 515.239 54.432C521.463 54.432 526.727 51.4981 529.306 46.4364C530.397 44.2958 531.007 41.7747 531.007 38.934C531.007 36.0732 530.398 33.5366 529.306 31.3863C526.75 26.3524 521.553 23.436 515.347 23.436C509.829 23.436 505.074 25.7711 502.295 29.8688C501.712 30.7285 501.216 31.6658 500.818 32.6754C500.521 33.4291 500.278 34.2231 500.095 35.0552C499.828 36.2693 499.687 37.5645 499.687 38.934C499.687 40.3065 499.825 41.6044 500.088 42.8208ZM464.549 48.7754C467.191 52.3529 471.431 54.3893 476.55 54.4314C476.604 54.4318 476.658 54.432 476.712 54.432C478.372 54.432 479.926 54.2211 481.356 53.818C484.675 52.8825 487.33 50.9123 489.113 48.1433C489.394 47.7071 489.653 47.251 489.89 46.776C489.968 46.6186 490.044 46.4591 490.118 46.2975C490.57 45.3037 490.928 44.2326 491.184 43.092H481.356C480.737 44.7853 479.738 45.91 478.167 46.3454C477.728 46.4671 477.245 46.535 476.712 46.5463C476.658 46.5475 476.604 46.548 476.55 46.548C473.763 46.548 471.711 44.6929 471.145 41.0806C471.119 40.9159 471.096 40.7475 471.077 40.5754C471.031 40.1706 471.002 39.7455 470.992 39.3004C470.989 39.1797 470.988 39.0576 470.988 38.934C470.988 38.7858 470.99 38.6397 470.994 38.4958C471.005 38.0845 471.032 37.6906 471.074 37.3141C471.094 37.1346 471.118 36.9591 471.145 36.7875C471.711 33.1752 473.763 31.32 476.55 31.32C476.604 31.32 476.658 31.3207 476.712 31.3219C477.234 31.334 477.711 31.4046 478.147 31.5284C479.746 31.9834 480.774 33.1561 481.356 34.776H491.184C490.937 33.645 490.597 32.589 490.169 31.6124C490.092 31.4363 490.012 31.2629 489.929 31.092C489.691 30.6 489.429 30.1296 489.145 29.6814C487.362 26.8703 484.695 24.9341 481.356 24.0257C479.926 23.6366 478.372 23.436 476.712 23.436C476.658 23.436 476.604 23.4363 476.55 23.4367C467.78 23.5094 461.592 29.4881 461.592 38.934C461.592 39.2317 461.598 39.5259 461.61 39.8165C461.758 43.3863 462.806 46.416 464.549 48.7754ZM541.306 54H550.54V37.638C550.54 34.9866 551.566 33.1413 553.306 32.2173C554.038 31.8284 554.897 31.6027 555.859 31.5487C556.01 31.5403 556.163 31.536 556.318 31.536C557.473 31.536 558.493 31.7697 559.342 32.2237C559.538 32.3283 559.724 32.4446 559.902 32.5725C560.406 32.9364 560.833 33.3939 561.172 33.941C561.77 34.903 562.096 36.1422 562.096 37.638V54H571.276V37.638C571.276 35.2915 572.08 33.5764 573.471 32.5725C573.723 32.3902 573.995 32.2315 574.285 32.0966C575.081 31.7262 576.013 31.536 577.054 31.536C578.065 31.536 578.974 31.7153 579.754 32.0649C581.383 32.7944 582.456 34.2655 582.75 36.396C582.804 36.7879 582.832 37.2021 582.832 37.638V54H592.012V36.396C592.012 28.296 587.206 23.544 579.754 23.544C579.669 23.544 579.584 23.545 579.499 23.5468C578.658 23.565 577.84 23.6727 577.054 23.858C574.726 24.4064 572.676 25.6341 571.125 27.2272C570.543 27.8255 570.032 28.4753 569.602 29.16C568.395 27.0317 566.627 25.4639 564.453 24.5338C563.846 24.2741 563.207 24.0642 562.54 23.9055C562.486 23.8927 562.432 23.8802 562.378 23.868C561.853 23.7506 561.311 23.6646 560.753 23.6108C560.293 23.5665 559.823 23.544 559.342 23.544C558.316 23.544 557.349 23.6574 556.447 23.868C556.404 23.8781 556.361 23.8885 556.318 23.899C555.207 24.1721 554.198 24.594 553.306 25.1335C552.192 25.8079 551.26 26.6663 550.54 27.648V23.868H541.306V54ZM213.926 36.282C213.62 35.9898 212.796 35.436 211.059 35.436C211.023 35.436 210.987 35.4363 210.951 35.4368C209.328 35.4593 208.522 35.9882 208.203 36.2919C207.958 36.5251 207.399 37.167 207.399 38.934C207.399 40.7885 207.978 41.4308 208.181 41.6262C208.449 41.8849 209.223 42.432 210.951 42.432C210.988 42.432 211.024 42.4318 211.059 42.4313C212.732 42.4088 213.576 41.8649 213.913 41.5466C214.169 41.3046 214.719 40.6707 214.719 38.934C214.719 37.1386 214.155 36.5006 213.926 36.282ZM518.214 36.282C517.907 35.9898 517.084 35.436 515.347 35.436C515.311 35.436 515.275 35.4363 515.239 35.4368C513.616 35.4593 512.81 35.9882 512.491 36.2919C512.246 36.5251 511.687 37.167 511.687 38.934C511.687 40.7885 512.266 41.4308 512.469 41.6262C512.737 41.8849 513.511 42.432 515.239 42.432C515.276 42.432 515.312 42.4318 515.347 42.4313C517.02 42.4088 517.864 41.8649 518.201 41.5466C518.457 41.3046 519.007 40.6707 519.007 38.934C519.007 37.1386 518.443 36.5006 518.214 36.282ZM211.059 31.428C207.711 31.428 204.795 33.804 204.795 38.934C204.795 44.01 207.603 46.44 210.951 46.44C214.245 46.44 217.323 44.01 217.323 38.934C217.323 33.804 214.299 31.428 211.059 31.428ZM515.347 31.428C511.999 31.428 509.083 33.804 509.083 38.934C509.083 44.01 511.891 46.44 515.239 46.44C518.533 46.44 521.611 44.01 521.611 38.934C521.611 33.804 518.587 31.428 515.347 31.428Z" fill="#606060"/>
</svg>
